<svg width="1495" height="1861" viewBox="0 0 1495 1861" fill="none" xmlns="http://www.w3.org/2000/svg">
<path fill-rule="evenodd" clip-rule="evenodd" d="M1065.93 205.694C1069.96 197.098 1073.98 188.496 1078 179.894C1087.13 160.352 1096.26 140.81 1105.54 121.336C1118.22 94.7127 1150.63 88.3805 1171.62 108.217C1183.77 119.691 1187.92 138.363 1180.76 153.889C1161.18 196.315 1141.52 238.706 1121.59 280.966C1103.9 319.24 1086.11 357.472 1068.09 395.593C1046.08 443.26 1023.95 490.871 1001.42 538.296C993.974 553.969 980.339 561.592 963.053 560.878C945.496 560.157 933.456 550.637 926.324 534.739C921.915 521.922 923.931 509.877 929.756 497.844C936.523 483.868 943.001 469.752 949.481 455.635C952.225 449.656 954.969 443.677 957.735 437.708C961.767 429.112 965.787 420.51 969.807 411.908C975.343 400.061 980.879 388.214 986.447 376.383C986.951 375.179 987.495 373.976 988.077 372.773C994.844 358.798 1001.32 344.682 1007.8 330.565C1010.55 324.586 1013.29 318.606 1016.06 312.638C1020.09 304.042 1024.11 295.44 1028.13 286.838C1031.06 280.554 1034 274.271 1036.94 267.989C1037.26 267.269 1037.6 266.549 1037.95 265.829L1038.18 265.337C1042.53 256.069 1046.88 246.807 1051.26 237.558C1053.4 232.916 1055.54 228.268 1057.67 223.621C1060.41 217.642 1063.16 211.662 1065.93 205.694Z" fill="#FABC05"/>
<path fill-rule="evenodd" clip-rule="evenodd" d="M353.169 240.412C349.176 231.798 345.17 223.19 341.165 214.581C332.065 195.024 322.965 175.467 314.009 155.844C301.764 129.019 317.751 100.116 346.438 96.7871C363.034 94.86 380.008 103.679 387.297 119.147C407.215 161.414 427.051 203.722 446.612 246.155C464.558 284.31 482.413 322.51 500.035 360.816C522.401 408.317 544.644 455.879 566.494 503.62C573.714 519.397 570.789 534.742 559.131 547.525C547.294 560.511 532.262 563.615 515.498 558.86C502.846 553.999 494.915 544.712 489.441 532.515C483.085 518.348 476.436 504.311 469.786 490.274C466.97 484.328 464.154 478.382 461.359 472.427C457.366 463.813 453.36 455.204 449.355 446.596C443.838 434.74 438.322 422.884 432.837 411.013C432.239 409.854 431.667 408.664 431.12 407.445C424.763 393.278 418.114 379.241 411.465 365.203C408.649 359.258 405.832 353.312 403.038 347.357C399.045 338.742 395.039 330.134 391.034 321.525C388.108 315.237 385.182 308.949 382.26 302.658C381.915 301.949 381.579 301.23 381.251 300.5L381.027 300.001C376.718 290.718 372.422 281.429 368.153 272.127C365.974 267.502 363.785 262.881 361.596 258.259C358.78 252.314 355.964 246.368 353.169 240.412Z" fill="#FABC05"/>
<path fill-rule="evenodd" clip-rule="evenodd" d="M706 135.274C706.021 125.779 706.029 116.285 706.037 106.79C706.055 85.2194 706.072 63.649 706.249 42.079C706.488 12.5923 733.192 -6.84645 760.598 2.26072C776.453 7.52767 788.11 22.6938 788.18 39.7934C788.368 86.5174 788.465 133.245 788.261 179.969C788.401 222.134 788.439 264.301 788.221 306.465C788.416 358.968 788.475 411.474 788.101 463.976C787.978 481.326 778.842 493.998 762.873 500.656C746.657 507.422 731.722 503.883 718.538 492.489C709.126 482.736 705.862 470.967 706.056 457.6C706.283 442.074 706.189 426.542 706.095 411.01C706.055 404.431 706.015 397.852 706 391.273C706.021 381.779 706.029 372.284 706.037 362.789C706.048 349.713 706.058 336.636 706.105 323.56C706.052 322.256 706.037 320.936 706.056 319.6C706.283 304.074 706.189 288.542 706.095 273.01C706.055 266.431 706.015 259.852 706 253.274C706.021 243.779 706.029 234.284 706.037 224.79C706.043 217.854 706.048 210.918 706.059 203.982C706.046 203.194 706.045 202.4 706.056 201.6L706.064 201.053C706.083 190.819 706.114 180.584 706.176 170.35C706.157 165.237 706.126 160.124 706.095 155.01C706.055 148.432 706.015 141.853 706 135.274Z" fill="#109D58"/>
<path fill-rule="evenodd" clip-rule="evenodd" d="M103.637 478.046C96.3771 471.927 89.1087 465.818 81.8402 459.709C65.3277 445.83 48.8152 431.951 32.4052 417.951C9.97102 398.814 12.2446 365.863 36.8377 350.722C51.0638 341.962 70.1746 342.781 83.3183 353.719C119.232 383.608 155.09 413.57 190.752 443.76C223.141 470.756 255.467 497.831 287.627 525.101C327.972 558.699 368.232 592.405 408.21 626.438C421.422 637.686 425.257 652.83 420.093 669.342C414.853 686.114 402.541 695.279 385.338 698.054C371.817 698.996 360.704 693.931 350.589 685.19C338.841 675.037 326.882 665.125 314.923 655.213C309.858 651.015 304.793 646.816 299.744 642.599C292.484 636.48 285.216 630.371 277.947 624.262C267.937 615.848 257.927 607.435 247.939 598.994C246.907 598.196 245.886 597.359 244.875 596.485C233.127 586.332 221.168 576.42 209.21 566.508C204.144 562.31 199.079 558.112 194.03 553.895C186.77 547.776 179.502 541.666 172.233 535.557C166.924 531.095 161.614 526.632 156.308 522.165C155.696 521.669 155.087 521.16 154.482 520.637L154.068 520.279C146.239 513.686 138.42 507.083 130.62 500.458C126.69 497.186 122.753 493.923 118.817 490.66C113.751 486.461 108.686 482.263 103.637 478.046Z" fill="#E94436"/>
<path d="M888.8 1861C833 1861 787.7 1850.2 752.9 1828.6C718.7 1807 693.5 1779.4 677.3 1745.8C661.7 1712.2 653.9 1676.8 653.9 1639.6V1104.1H512.6L529.7 953.8H653.9V744.1L842 724.3V953.8H1059.8V1104.1H842V1544.2C842 1595.8 845 1633.3 851 1656.7C857 1679.5 871.7 1693.9 895.1 1699.9C918.5 1705.9 955.7 1708.9 1006.7 1708.9H1057.1L1040.9 1861H888.8Z" fill="#4385F3"/>
<path fill-rule="evenodd" clip-rule="evenodd" d="M1337.52 414.953C1344.81 408.866 1352.09 402.769 1359.37 396.671C1375.9 382.82 1392.44 368.968 1409.07 355.239C1431.82 336.468 1463.87 344.429 1474.51 371.278C1480.67 386.809 1476.54 405.487 1463.49 416.532C1427.82 446.71 1392.08 476.82 1356.16 506.698C1323.95 533.908 1291.67 561.041 1259.23 587.977C1219.14 621.874 1178.95 655.67 1138.5 689.131C1125.12 700.189 1109.54 701.336 1094.18 693.383C1078.57 685.31 1071.68 671.593 1071.94 654.17C1073.36 640.691 1080.28 630.627 1090.64 622.183C1102.68 612.376 1114.52 602.321 1126.36 592.265C1131.37 588.005 1136.39 583.746 1141.41 579.506C1148.7 573.419 1155.98 567.322 1163.26 561.225C1173.28 552.828 1183.31 544.43 1193.35 536.06C1194.32 535.182 1195.32 534.322 1196.36 533.478C1208.4 523.672 1220.23 513.616 1232.07 503.56C1237.08 499.301 1242.1 495.042 1247.13 490.801C1254.42 484.715 1261.69 478.617 1268.97 472.52C1274.29 468.066 1279.61 463.612 1284.93 459.163C1285.52 458.645 1286.13 458.134 1286.75 457.629L1287.17 457.284C1295.03 450.719 1302.89 444.165 1310.77 437.634C1314.67 434.332 1318.57 431.022 1322.46 427.711C1327.48 423.452 1332.49 419.193 1337.52 414.953Z" fill="#E94436"/>
</svg>
